<?xml version="1.0" standalone="no"?>
<!DOCTYPE svg PUBLIC "-//W3C//DTD SVG 20010904//EN"
 "http://www.w3.org/TR/2001/REC-SVG-20010904/DTD/svg10.dtd">
<svg version="1.0" xmlns="http://www.w3.org/2000/svg"
 width="1383.000000pt" height="1138.000000pt" viewBox="0 0 1383.000000 1138.000000"
 preserveAspectRatio="xMidYMid meet">

<g transform="translate(0.000000,1138.000000) scale(0.100000,-0.100000)"
fill="#000000" stroke="none">
<path d="M3390 10805 c-278 -56 -494 -259 -597 -560 -26 -78 -53 -216 -53
-276 0 -22 -2 -39 -5 -39 -3 0 -51 11 -108 24 -145 34 -235 40 -335 22 -235
-41 -427 -220 -486 -452 -12 -46 -16 -112 -16 -252 l0 -191 -197 2 c-226 2
-273 -6 -409 -73 -182 -89 -326 -281 -363 -484 -8 -42 -11 -872 -11 -2790 0
-3021 -5 -2792 65 -2925 92 -175 293 -344 488 -410 l52 -18 5 -354 c5 -304 9
-362 24 -409 78 -240 270 -426 518 -502 l73 -23 1972 -3 1972 -2 78 -78 c140
-139 264 -221 397 -261 65 -20 90 -21 530 -21 497 0 517 2 634 55 84 38 197
122 293 217 l89 88 2048 2 2047 3 80 27 c255 87 435 308 475 584 5 38 10 216
10 395 l0 326 66 39 c123 72 217 197 266 354 l23 75 0 2825 0 2825 -28 80
c-62 176 -180 311 -340 390 -131 65 -203 77 -418 73 l-177 -3 -5 210 c-5 232
-18 298 -78 418 -44 86 -137 179 -221 221 -143 72 -223 72 -523 -3 -1106 -275
-2289 -759 -3235 -1325 -304 -182 -688 -444 -935 -638 l-70 -55 -165 124
c-197 148 -486 343 -780 527 l-215 134 -6 323 c-8 424 -30 551 -134 764 -115
236 -313 416 -595 540 -162 71 -1306 464 -1396 480 -103 18 -215 18 -304 0z
m845 -679 c325 -115 631 -227 680 -251 213 -102 326 -234 375 -438 38 -156 41
-337 38 -2017 l-3 -1615 -279 340 c-323 394 -347 421 -401 446 -45 21 -121 24
-180 8 -21 -6 -186 -89 -365 -184 -179 -96 -333 -177 -343 -180 -16 -7 -17 95
-19 1706 -3 1614 -4 1717 -21 1774 -67 225 -201 333 -417 338 -82 2 -83 4 -41
93 38 80 89 136 154 169 47 24 60 26 142 22 87 -4 109 -11 680 -211z m-1644
-706 c197 -49 251 -64 482 -137 l177 -56 0 -259 c0 -200 -3 -258 -12 -258 -7
0 -104 18 -216 39 -212 41 -235 41 -289 6 -36 -24 -66 -96 -57 -141 7 -37 43
-87 75 -105 26 -14 415 -89 462 -89 l37 0 0 -1317 c0 -1496 -8 -1356 88 -1445
76 -71 158 -98 242 -79 25 6 239 116 479 246 239 130 437 232 440 227 3 -5
213 -255 465 -556 483 -576 488 -581 584 -599 92 -18 198 40 240 131 l27 57 5
1493 5 1493 65 -48 c101 -74 300 -204 613 -402 l287 -182 0 -2761 0 -2760 -32
24 c-243 184 -654 446 -993 635 -902 503 -2039 940 -3024 1163 -101 22 -196
47 -210 55 -35 18 -94 82 -117 125 -18 34 -19 124 -22 2705 -2 1469 0 2707 3
2753 5 55 11 82 19 82 7 0 86 -18 177 -40z m8959 -2708 c0 -2488 -2 -2753 -16
-2802 -23 -76 -64 -115 -139 -130 -114 -22 -461 -111 -649 -166 -968 -283
-1956 -716 -2766 -1212 -150 -92 -500 -325 -627 -418 l-63 -45 0 2760 0 2759
93 75 c895 719 2141 1346 3472 1748 161 48 656 178 683 179 9 0 12 -556 12
-2748z m-9791 1842 l31 -6 0 -2302 c0 -2245 1 -2303 20 -2382 37 -156 120
-296 240 -407 127 -117 217 -158 460 -212 654 -145 1357 -377 2008 -660 73
-32 131 -59 130 -61 -2 -1 -39 6 -83 17 -166 40 -619 129 -855 168 -642 106
-1327 173 -1924 189 -289 8 -297 10 -336 75 -20 32 -20 70 -17 2780 l2 2749
33 29 c32 28 35 29 146 29 62 0 128 -3 145 -6z m10681 -16 c25 -13 55 -38 67
-57 l23 -34 0 -2714 c0 -2484 -1 -2718 -16 -2749 -9 -19 -30 -44 -48 -57 -29
-21 -44 -22 -296 -29 -622 -16 -1301 -83 -1965 -194 -235 -39 -616 -113 -773
-150 -57 -13 -109 -24 -115 -24 -18 1 211 101 447 197 384 156 773 291 1151
399 175 50 286 79 577 147 58 14 130 37 160 52 164 82 283 231 354 445 l29 85
3 2347 2 2347 23 4 c12 2 92 5 177 6 143 1 159 -1 200 -21z m-398 -6530 c2
-200 0 -373 -4 -385 -4 -12 -18 -25 -30 -28 -13 -3 -867 -4 -1898 -3 l-1875 3
174 63 c831 299 1848 532 2831 646 252 30 577 57 752 64 l46 2 4 -362z m-9662
326 c845 -60 1686 -205 2435 -419 208 -60 656 -210 815 -274 l125 -50 -1819 0
c-1796 -1 -1820 -1 -1861 19 -47 23 -119 91 -144 135 -14 26 -16 74 -19 324
l-3 294 133 -7 c73 -4 225 -14 338 -22z"/>
<path d="M2745 8080 c-76 -31 -109 -142 -63 -210 13 -19 39 -43 59 -53 45 -22
348 -72 383 -63 15 4 43 21 63 39 30 28 36 41 41 87 6 64 -15 110 -63 140 -19
12 -88 29 -184 44 -161 27 -203 30 -236 16z"/>
<path d="M5952 7510 c-51 -32 -74 -76 -69 -137 4 -61 13 -73 117 -154 41 -32
137 -123 212 -202 78 -82 153 -152 174 -162 118 -56 241 65 194 191 -15 39
-374 393 -449 442 -73 49 -125 55 -179 22z"/>
<path d="M2742 7390 c-71 -43 -88 -148 -35 -211 35 -42 44 -45 201 -78 146
-31 175 -31 227 3 52 34 71 135 35 193 -29 48 -55 60 -187 88 -148 30 -197 31
-241 5z"/>
<path d="M5927 6768 c-70 -41 -95 -138 -52 -205 8 -12 70 -61 137 -109 68 -49
170 -132 228 -185 122 -111 134 -119 192 -119 59 0 105 30 129 85 35 79 24
104 -105 231 -102 100 -316 267 -394 308 -42 22 -90 20 -135 -6z"/>
<path d="M2713 6651 c-60 -38 -86 -107 -64 -173 18 -54 52 -79 143 -104 46
-12 115 -32 153 -44 126 -38 207 -13 241 75 14 38 15 52 5 84 -18 62 -46 89
-109 107 -31 9 -90 27 -131 41 -105 35 -197 40 -238 14z"/>
<path d="M5910 6093 c-19 -10 -45 -34 -58 -53 -20 -29 -23 -44 -19 -90 4 -49
8 -58 51 -96 25 -24 104 -79 174 -123 70 -44 170 -118 222 -165 64 -57 106
-88 128 -92 56 -11 103 3 141 40 29 29 35 43 39 88 3 44 0 59 -20 88 -32 47
-197 191 -277 242 -36 23 -110 70 -164 106 -111 74 -158 85 -217 55z"/>
<path d="M2720 5963 c-23 -9 -60 -45 -76 -75 -32 -62 -6 -149 56 -187 18 -10
70 -23 123 -30 51 -6 130 -17 177 -23 104 -14 134 -7 176 37 41 44 51 97 28
153 -29 74 -70 91 -276 117 -130 15 -182 18 -208 8z"/>
<path d="M3842 5690 c-44 -27 -75 -96 -66 -147 4 -20 21 -52 38 -70 27 -29 54
-41 211 -89 253 -78 449 -158 748 -306 154 -76 271 -128 288 -128 135 0 199
170 97 255 -36 31 -344 186 -528 268 -257 113 -630 237 -714 237 -23 0 -55 -9
-74 -20z"/>
<path d="M5925 5346 c-51 -23 -77 -60 -83 -117 -8 -81 10 -102 182 -227 83
-61 188 -144 233 -186 91 -83 134 -102 193 -86 60 16 110 83 110 148 0 46 -31
89 -125 173 -97 87 -362 285 -402 300 -33 12 -72 11 -108 -5z"/>
<path d="M2711 5209 c-18 -4 -49 -23 -69 -42 -28 -28 -36 -44 -39 -84 -5 -55
17 -105 57 -135 16 -11 130 -39 321 -77 1535 -310 2313 -669 3184 -1468 67
-60 130 -115 142 -122 30 -16 99 -14 133 4 66 34 93 107 66 178 -17 45 -84
110 -312 307 -615 531 -1223 865 -2019 1110 -383 117 -808 218 -1415 333 -8 2
-30 0 -49 -4z"/>
<path d="M5655 4851 c-63 -38 -87 -110 -60 -178 14 -35 40 -59 163 -151 174
-131 264 -205 432 -356 69 -62 135 -118 147 -124 33 -18 94 -14 131 8 52 32
74 76 69 140 l-4 54 -103 99 c-165 157 -551 470 -637 515 -33 18 -104 14 -138
-7z"/>
<path d="M2672 4530 c-91 -56 -95 -188 -7 -246 14 -9 162 -44 332 -79 897
-183 1437 -352 1952 -609 432 -217 791 -469 1214 -853 90 -81 150 -128 172
-134 105 -29 210 80 176 183 -12 35 -102 128 -256 264 -777 684 -1532 1054
-2715 1332 -287 68 -752 162 -798 162 -20 0 -52 -9 -70 -20z"/>
<path d="M10900 8655 c-565 -117 -889 -201 -1275 -330 -707 -235 -1229 -528
-1805 -1011 -227 -191 -358 -319 -370 -363 -25 -92 43 -181 138 -181 58 0 71
8 182 110 419 383 800 654 1215 865 525 266 1088 442 2014 630 151 30 286 62
298 71 85 55 83 188 -3 245 -44 29 -112 23 -394 -36z"/>
<path d="M10895 7951 c-1335 -278 -2041 -562 -2782 -1117 -267 -201 -610 -502
-639 -562 -44 -94 28 -202 136 -202 56 0 71 10 212 140 155 143 284 251 463
385 715 538 1435 821 2753 1084 274 55 303 66 328 127 27 65 13 123 -40 174
-46 42 -112 37 -431 -29z"/>
<path d="M10925 7285 c-1522 -311 -2312 -659 -3160 -1393 -230 -199 -302 -271
-313 -314 -21 -77 24 -157 100 -180 64 -19 107 1 211 99 585 548 1193 917
1913 1163 375 128 888 258 1424 360 91 18 177 38 192 46 66 34 89 139 45 205
-26 40 -79 69 -122 68 -16 0 -147 -24 -290 -54z"/>
<path d="M11055 6559 c-727 -149 -1139 -257 -1547 -405 -710 -257 -1253 -591
-1866 -1146 -73 -66 -140 -134 -148 -151 -11 -21 -15 -46 -11 -81 4 -42 10
-55 45 -88 37 -34 46 -38 95 -38 63 0 69 5 241 162 399 365 773 623 1221 843
517 254 1061 421 1956 600 148 30 280 62 293 70 27 18 66 90 66 121 -1 37 -39
104 -72 124 -44 27 -100 25 -273 -11z"/>
<path d="M10985 5846 c-1627 -336 -2401 -694 -3337 -1542 -131 -120 -153 -151
-152 -217 3 -91 110 -161 197 -128 14 5 81 61 149 123 900 821 1683 1177 3287
1493 101 19 196 42 213 51 88 46 91 193 4 249 -45 30 -95 26 -361 -29z"/>
<path d="M11000 5081 c-943 -195 -1469 -358 -2015 -626 -465 -228 -847 -494
-1302 -906 -114 -104 -145 -137 -154 -168 -44 -147 123 -251 240 -150 22 19
99 88 173 154 708 639 1408 998 2453 1259 232 58 403 96 702 156 133 27 256
56 273 65 41 21 74 93 66 144 -9 60 -62 114 -121 125 -18 3 -147 -19 -315 -53z"/>
<path d="M11225 4469 c-1060 -210 -1691 -399 -2249 -674 -442 -218 -873 -520
-1299 -909 -134 -123 -148 -140 -154 -199 -8 -79 47 -145 129 -154 60 -7 82 6
208 122 880 809 1666 1172 3205 1480 175 35 289 63 304 74 90 64 90 176 0 243
-31 24 -81 29 -144 17z"/>
</g>
</svg>
